<svg xmlns="http://www.w3.org/2000/svg" width="529.477" height="97.029" viewBox="0 0 529.477 97.029">
  <g>
    <path d="M42.873,77.058H12.68s-7.889.124-7.889,7.889,7.291,8.034,7.291,8.034H524.836" fill="none" stroke="#ff6b6b" stroke-linecap="round" stroke-miterlimit="10" stroke-width="7"/>
    <path d="M47.023,78.139a4.84,4.84,0,0,1-6.845,0L19.712,57.673a33.785,33.785,0,0,1,0-47.778h0a33.785,33.785,0,0,1,47.778,0h0a33.785,33.785,0,0,1,0,47.778Z" fill="#ff6b6b"/>
    <circle cx="43.601" cy="33.513" r="22.521" fill="#fff"/>
    <circle cx="43.601" cy="33.513" r="15.315" fill="#ff6b6b"/>
    <path d="M53.454,33.08a9.977,9.977,0,0,1-19.954,0Z" fill="#fff"/>
    <g>
      <path d="M97.072,77.058a2.9,2.9,0,0,1-2.816-2.816V22.8a2.9,2.9,0,0,1,2.816-2.816h17.977c9.195,0,14.828,5.467,14.828,14.165,0,5.385-1.74,10.6-6.959,12.509,5.8,1.077,10.024,8.118,10.024,14.414,0,8.616-5.8,15.988-15.988,15.988Zm18.639-32.8c5.965,0,8.7-4.888,8.7-10.107,0-5.716-4.059-8.781-9.941-8.781H99.806V44.254Zm-15.9,5.136v22.2h17.065a10.344,10.344,0,0,0,10.6-10.521c0-5.219-4.307-11.68-10.934-11.68Z" fill="#f6fff7"/>
      <path d="M151.084,51.792v19.8h25.6a2.735,2.735,0,1,1,0,5.467H148.433a2.9,2.9,0,0,1-2.817-2.816V22.8a2.9,2.9,0,0,1,2.817-2.816H175.77a2.735,2.735,0,1,1,0,5.467H151.084V46.325h21.29a2.735,2.735,0,1,1,0,5.467Z" fill="#f6fff7"/>
      <path d="M232.018,73.745a2.685,2.685,0,0,1-1.573,3.562,2.733,2.733,0,0,1-3.563-1.657l-5.219-13.586H195.237L190.018,75.65a2.731,2.731,0,0,1-3.562,1.657,2.685,2.685,0,0,1-1.574-3.562l19.8-51.61a3.515,3.515,0,0,1,3.562-2.567h.414a3.513,3.513,0,0,1,3.562,2.567ZM208.492,27.6,197.226,56.928h22.532Z" fill="#f6fff7"/>
      <path d="M255.049,25.449V74.656a2.735,2.735,0,1,1-5.467,0V25.449H233.676a2.735,2.735,0,1,1,0-5.467h37.278a2.735,2.735,0,1,1,0,5.467Z" fill="#f6fff7"/>
      <path d="M367.961,74.407a2.673,2.673,0,1,1-5.3.663l-5.55-45.313-19.219,39.1c-.58,1.243-1.657,2.9-3.645,2.9s-3.066-1.657-3.645-2.9l-19.3-39.1-5.55,45.313a2.673,2.673,0,1,1-5.3-.663l6.3-51.857a3.141,3.141,0,0,1,2.982-2.982h.58a3.02,3.02,0,0,1,2.816,1.656l21.125,43.243,21.041-43.243a3.021,3.021,0,0,1,2.817-1.656h.579a3.142,3.142,0,0,1,2.983,2.982Z" fill="#f6fff7"/>
      <path d="M422.634,73.745a2.685,2.685,0,0,1-1.574,3.562A2.732,2.732,0,0,1,417.5,75.65l-5.219-13.586H385.853L380.634,75.65a2.732,2.732,0,0,1-3.562,1.657,2.685,2.685,0,0,1-1.574-3.562l19.8-51.61a3.515,3.515,0,0,1,3.562-2.567h.414a3.514,3.514,0,0,1,3.562,2.567ZM399.108,27.6,387.841,56.928h22.533Z" fill="#f6fff7"/>
      <path d="M437.959,74.656a2.735,2.735,0,1,1-5.468,0V22.8a2.9,2.9,0,0,1,2.817-2.816h19.55c11.6,0,16.071,8.7,16.071,17.479s-4.473,17.313-16.071,17.313h-16.9Zm0-49.207V49.307h16.485c8.036,0,11.018-5.8,11.018-11.846s-2.982-12.012-10.6-12.012Z" fill="#f6fff7"/>
      <path d="M481.2,60.076a2.784,2.784,0,0,1,3.065,2.485c.911,5.136,5.8,9.858,12.923,9.858,8.615,0,13.088-4.887,14-9.361,1.077-7.041-4.391-10.6-10.852-12.094l-7.705-1.74c-11.845-2.651-13.419-9.527-13.419-14.331,0-9.279,8.781-15.574,17.893-15.574s16.319,5.219,17.645,13.5a2.763,2.763,0,0,1-2.237,3.23,2.637,2.637,0,0,1-3.148-2.4c-.911-5.467-5.964-8.864-12.26-8.864s-12.426,4.059-12.426,10.107c0,2.982,1.077,7.207,9.113,9.03l7.786,1.739c9.113,2.071,16.651,7.455,14.994,18.39-1.325,6.627-7.621,13.835-19.384,13.835-10.107,0-17.065-7.125-18.225-14.663A2.7,2.7,0,0,1,481.2,60.076Z" fill="#f6fff7"/>
    </g>
  </g>
</svg>
